<?xml version="1.0" encoding="UTF-8"?>
<svg version="1.1" xmlns="http://www.w3.org/2000/svg" width="1000" height="1000">
<path d="M0 0 C0.65210449 0.45036621 1.30420898 0.90073242 1.97607422 1.36474609 C15.68629241 10.88116453 28.90072386 21.11239133 41.73583984 31.7746582 C45.02703998 34.48987687 48.25038091 36.92482913 52 39 C52.66124374 38.51267899 53.32248749 38.02535797 54.00376892 37.52326965 C57.71575752 35.63611228 60.87515689 35.58530907 64.93969727 35.62768555 C66.11621353 35.62220955 66.11621353 35.62220955 67.3164978 35.61662292 C69.90002327 35.60854008 72.48291711 35.62210721 75.06640625 35.63671875 C76.86571757 35.63723758 78.66502945 35.636719 80.46434021 35.63520813 C84.23111457 35.63529775 87.99767444 35.64570696 91.7644043 35.66381836 C96.59211745 35.68652144 101.41951777 35.68704555 106.24726963 35.68030071 C109.96102173 35.67695934 113.67470252 35.68359374 117.38844109 35.69342995 C119.16863571 35.69727809 120.94883826 35.69843176 122.72903633 35.6968441 C125.21607712 35.6964732 127.70271675 35.70909989 130.18969727 35.7253418 C130.92487076 35.72286438 131.66004425 35.72038696 132.41749573 35.71783447 C139.06186491 35.78707946 139.06186491 35.78707946 142 38 C144.86528597 41.66047089 144.20023962 46.14361314 144.08422852 50.55712891 C144.07006393 51.41947144 144.05589935 52.28181396 144.04130554 53.17028809 C144.01027731 55.04189525 143.97513673 56.91343774 143.93637276 58.78490067 C143.85846773 62.77279304 143.81606623 66.76081691 143.7713995 70.74919701 C143.68760138 78.17119706 143.58850496 85.59235183 143.4309082 93.01318359 C143.3225647 98.17901503 143.25891012 103.34377329 143.22398186 108.51060104 C143.20242748 110.47309545 143.16453515 112.43548477 143.10956001 114.39732742 C142.4659208 127.18883487 142.4659208 127.18883487 148.3737793 138.06542969 C149.8908334 139.40581451 151.43044072 140.72149764 153 142 C153.97936752 143.1280431 154.9275513 144.28466947 155.828125 145.4765625 C160.05660949 150.97359233 164.32500597 156.42120944 168.74194336 161.76831055 C186.69881281 183.55869915 203.04897533 207.4419163 217 232 C217.37995117 232.66128906 217.75990234 233.32257813 218.15136719 234.00390625 C241.68151721 275.05409568 268.61586496 329.78491355 255.69628906 378.46118164 C255.16007801 380.31615108 254.58145917 382.15871263 254 384 C253.71125 384.94875 253.4225 385.8975 253.125 386.875 C247.84352022 401.96494222 235.79082093 413.1806377 221.80371094 420.16308594 C195.25706223 432.48061595 163.9755354 426.81066784 137 419 C135.79005371 418.65291992 135.79005371 418.65291992 134.55566406 418.29882812 C93.74108247 406.31269155 55.3796216 383.58773843 21 359 C20.2790918 358.48872559 19.55818359 357.97745117 18.81542969 357.45068359 C8.65341685 350.23942139 -1.2960404 342.81626732 -11 335 C-11.64179199 334.484375 -12.28358398 333.96875 -12.94482422 333.4375 C-25.06804931 323.68499986 -37.04359223 313.80619538 -48.50390625 303.27734375 C-50.72374551 301.2520444 -52.97393516 299.27402229 -55.25 297.3125 C-57.76783462 295.12730613 -60.16118778 292.87568539 -62.5 290.5 C-69.52392696 283.27001752 -69.52392696 283.27001752 -78 278 C-80.0241377 279.99674336 -82.04429763 281.99727125 -84.0625 284 C-84.62388672 284.55300781 -85.18527344 285.10601563 -85.76367188 285.67578125 C-88.7602285 288.65521469 -91.63355141 291.68743197 -94.390625 294.890625 C-98.28048922 299.39199389 -102.45845176 303.56922009 -106.6875 307.75 C-107.43322266 308.49121094 -108.17894531 309.23242188 -108.94726562 309.99609375 C-110.32914783 311.36934689 -111.71206563 312.74155944 -113.09643555 314.11230469 C-115.04055822 315.94876996 -115.04055822 315.94876996 -116.56573486 318.08662415 C-120.1060798 320.86939846 -123.53599382 320.55131246 -127.85180664 320.50170898 C-128.74490036 320.50711197 -129.63799408 320.51251495 -130.55815125 320.51808167 C-133.50915703 320.53058552 -136.45919045 320.51406818 -139.41015625 320.49609375 C-141.45991568 320.49624869 -143.50967541 320.49773676 -145.55943298 320.50050354 C-149.8542883 320.50188823 -154.14880994 320.48931649 -158.44360352 320.46655273 C-163.95421428 320.43815015 -169.46427127 320.44090941 -174.97492313 320.45364285 C-179.20678963 320.46059044 -183.43852764 320.45282155 -187.67037773 320.44038582 C-189.70259547 320.43586364 -191.73482696 320.43554119 -193.76704597 320.43945122 C-196.60418206 320.44235486 -199.44054889 320.42589769 -202.27758789 320.40405273 C-203.5423848 320.41080521 -203.5423848 320.41080521 -204.83273315 320.41769409 C-210.55044311 320.34437913 -210.55044311 320.34437913 -212.69399166 318.7023325 C-214.49968867 316.34867471 -214.75406646 314.16043467 -214.63720703 311.23828125 C-213.26046486 306.40227657 -209.03975648 303.29060374 -205.4375 300 C-203.82971859 298.48161175 -202.22422264 296.96079961 -200.62109375 295.4375 C-199.9036499 294.77621094 -199.18620605 294.11492187 -198.44702148 293.43359375 C-196.54050076 291.53753483 -194.82453805 289.64785929 -193.08789062 287.60546875 C-187.39625534 281.03547209 -181.12795938 275.00533344 -174.97265625 268.875 C-173.61480652 267.51901842 -172.25717967 266.1628136 -170.89976501 264.80639648 C-167.34941401 261.2598394 -163.79606883 257.71629739 -160.24206543 254.17340088 C-156.60680922 250.5484264 -152.97442901 246.92057251 -149.34179688 243.29296875 C-142.23065698 236.19251099 -135.1163467 229.09523903 -128 222 C-128.95232149 220.72232174 -129.9057407 219.44546162 -130.85961914 218.16894531 C-131.39043594 217.45780579 -131.92125275 216.74666626 -132.46815491 216.01397705 C-134.37020074 213.51328251 -136.38850895 211.13135858 -138.4375 208.75 C-150.16071569 194.8776044 -160.69884292 179.94575939 -171 165 C-171.42587402 164.38382813 -171.85174805 163.76765625 -172.29052734 163.1328125 C-179.68448323 152.38635342 -186.42794157 141.26447244 -193 130 C-193.433125 129.25911133 -193.86625 128.51822266 -194.3125 127.75488281 C-218.08091514 86.81007392 -243.56207811 31.92323198 -231.97265625 -16.64453125 C-229.08583545 -26.60348334 -225.42978672 -34.82971173 -219 -43 C-218.37351562 -43.8353125 -217.74703125 -44.670625 -217.1015625 -45.53125 C-205.98328134 -58.59213047 -187.62768541 -64.00430007 -171.125 -65.8125 C-109.38807208 -69.13168967 -48.94064022 -33.87534061 0 0 Z M-176.8125 -21.375 C-186.87929317 -10.44533884 -189.72076158 2.06386606 -189.4375 16.6875 C-189.42283691 17.91210938 -189.40817383 19.13671875 -189.39306641 20.3984375 C-188.18089773 79.01489985 -150.99155591 133.61480856 -116 178 C-115.12239014 179.12583496 -115.12239014 179.12583496 -114.22705078 180.27441406 C-112.45371313 182.54577317 -110.666889 184.80575899 -108.875 187.0625 C-108.33012939 187.76044678 -107.78525879 188.45839355 -107.22387695 189.17749023 C-105.88469932 190.8427285 -104.44960396 192.4299479 -103 194 C-100.01624444 194.30993912 -100.01624444 194.30993912 -98.22922897 192.60116577 C-97.57002079 191.94049103 -96.91081261 191.27981628 -96.23162842 190.59912109 C-95.47193253 189.84499435 -94.71223663 189.09086761 -93.92951965 188.31388855 C-93.10038559 187.4755397 -92.27125153 186.63719086 -91.41699219 185.7734375 C-90.54022324 184.89871292 -89.66345428 184.02398834 -88.76011658 183.12275696 C-86.35143177 180.71657074 -83.94965211 178.30386281 -81.55079174 175.88790512 C-79.03537618 173.35745581 -76.51185936 170.83511058 -73.98931885 168.31176758 C-69.74744566 164.06619745 -65.51125376 159.81502669 -61.27880859 155.56005859 C-55.86438585 150.11687988 -50.44084639 144.68288323 -45.01426315 139.25183105 C-40.33493865 134.56850621 -35.65987462 129.88093483 -30.98547459 125.19269562 C-29.49113734 123.69428079 -27.99622992 122.19643663 -26.50124359 120.69866943 C-23.69789741 117.88945958 -20.89899418 115.07584794 -18.10058594 112.26171875 C-16.86903023 111.02848625 -16.86903023 111.02848625 -15.6125946 109.77033997 C-11.42414357 105.55086763 -7.40185462 101.25025901 -3.52145576 96.74604797 C-1.57967641 94.51762965 0.46540454 92.41454999 2.55834961 90.328125 C3.37867172 89.50787842 4.19899384 88.68763184 5.04417419 87.8425293 C6.33521812 86.55922729 6.33521812 86.55922729 7.65234375 85.25 C8.55247696 84.35128174 9.45261017 83.45256348 10.38002014 82.52661133 C12.74711263 80.16413425 15.11634639 77.80384888 17.48669434 75.44464111 C19.91550742 73.02614819 22.34141103 70.60474054 24.76757812 68.18359375 C29.50907369 63.45307046 34.25341898 58.72542027 39 54 C37.15040795 49.88756883 34.47733041 47.72832827 30.9375 45.0625 C30.3182666 44.58723877 29.6990332 44.11197754 29.06103516 43.62231445 C27.72944847 42.60151963 26.3953768 41.58395975 25.05908203 40.56933594 C23.02718257 39.02071728 21.01012707 37.45457333 18.99609375 35.8828125 C-21.47370064 4.41276413 -126.03277736 -70.85267847 -176.8125 -21.375 Z M41.00219727 151.85913086 C40.46522217 152.40061768 39.92824707 152.94210449 39.375 153.5 C38.82448975 154.05244385 38.27397949 154.6048877 37.70678711 155.17407227 C34.89250471 158.01822763 32.15417945 160.88653558 29.5625 163.9375 C26.39987521 167.65960632 22.97010493 171.06843011 19.5 174.5 C12.42612369 181.45461567 12.42612369 181.45461567 6 189 C6 189.33 6 189.66 6 190 C18.54 190 31.08 190 44 190 C44.33 184.740625 44.66 179.48125 45 174.0625 C45.10441406 172.421604 45.20882812 170.78070801 45.31640625 169.09008789 C45.75498266 162.0538722 46.12839183 155.05352608 46 148 C43.82273493 148 42.46086488 150.40608161 41.00219727 151.85913086 Z M143 158 C142.99668985 158.79421954 142.99337971 159.58843908 142.98996925 160.40672588 C142.9087654 179.72768407 142.81668151 199.04856232 142.71247292 218.36941051 C142.66234117 227.71280974 142.61589829 237.05620017 142.578125 246.3996582 C142.54519426 254.54296976 142.50535702 262.68621314 142.45720994 270.82944947 C142.43195574 275.14162389 142.41017124 279.45375316 142.39665604 283.76598167 C142.38382592 287.82481384 142.36176123 291.88349106 142.33261681 295.94223785 C142.32354847 297.43173612 142.31785253 298.92125933 142.31578636 300.41078377 C142.31245875 302.44533381 142.29579609 304.47984899 142.2784729 306.514328 C142.27294214 307.65274234 142.26741138 308.79115667 142.26171303 309.96406841 C141.99522183 313.05542785 141.41363867 315.24680676 140 318 C136.69491015 319.65254492 133.00906848 319.15634465 129.37524414 319.16113281 C128.48244247 319.16609772 127.58964081 319.17106262 126.66978455 319.17617798 C123.70823403 319.19081633 120.74673704 319.19760383 117.78515625 319.203125 C115.73253884 319.20887438 113.67992145 319.21463214 111.62730408 319.22039795 C107.32062529 319.23091223 103.01396521 319.23675233 98.70727539 319.24023438 C93.18097638 319.24572478 87.65492306 319.26976273 82.12870121 319.29820633 C77.88829316 319.31680117 73.6479447 319.32203659 69.40749931 319.32357025 C67.3696807 319.32660366 65.33186331 319.33465521 63.29408455 319.34775543 C60.44724777 319.36475262 57.60101689 319.36295141 54.75415039 319.35644531 C53.90781036 319.3656601 53.06147034 319.37487488 52.18948364 319.3843689 C46.41142338 319.34286572 46.41142338 319.34286572 44.32250118 317.60203171 C41.90900054 314.67840139 41.87749769 312.71595627 41.88647461 308.99951172 C41.88659546 307.94401123 41.88671631 306.88851074 41.88684082 305.80102539 C41.89195679 304.68848389 41.89707275 303.57594238 41.90234375 302.4296875 C41.90335083 301.4094751 41.90435791 300.3892627 41.90539551 299.33813477 C41.91063837 295.51707845 41.92459957 291.69603813 41.9375 287.875 C41.958125 279.33625 41.97875 270.7975 42 262 C15.27 262 -11.46 262 -39 262 C-37.35 263.65 -35.7 265.3 -34 267 C-33.03126953 267.98613281 -33.03126953 267.98613281 -32.04296875 268.9921875 C-27.53985435 273.56166358 -22.87365225 277.83174479 -18 282 C-16.95787415 282.90572194 -15.91624715 283.81201803 -14.875 284.71875 C-6.78023549 291.7451992 1.49237855 298.48087696 10 305 C10.73460449 305.56589844 11.46920898 306.13179687 12.22607422 306.71484375 C53.34133142 338.30929878 102.74081436 371.4894193 155 380 C156.01449219 380.18175781 157.02898437 380.36351562 158.07421875 380.55078125 C163.63646349 381.18725702 169.15562071 381.22451308 174.75 381.25 C175.86632812 381.270625 176.98265625 381.29125 178.1328125 381.3125 C191.36690194 381.37419739 203.85570511 378.08724093 213.75 368.9375 C224.33405063 357.69780022 226.37841731 344.87765377 226.3125 330.0625 C226.30758545 328.76795898 226.3026709 327.47341797 226.29760742 326.13964844 C226.10418306 310.2887696 222.95027239 296.00506478 218 281 C217.59265625 279.76378906 217.1853125 278.52757812 216.765625 277.25390625 C203.2251338 238.98210613 180.07736671 204.4985852 155.28955078 172.66601562 C153.9103406 170.8841659 152.5457117 169.09181985 151.18359375 167.296875 C150.72404297 166.69302979 150.26449219 166.08918457 149.79101562 165.46704102 C148.90334379 164.29997031 148.01784786 163.13124071 147.13476562 161.96069336 C146.11331539 160.62221985 145.05987865 159.30825425 144 158 C143.67 158 143.34 158 143 158 Z " fill="#FEFEFE" transform="translate(488,319)"/>
<path d="M0 0 C0.65210449 0.45036621 1.30420898 0.90073242 1.97607422 1.36474609 C15.68629241 10.88116453 28.90072386 21.11239133 41.73583984 31.7746582 C45.02703998 34.48987687 48.25038091 36.92482913 52 39 C52.66124374 38.51267899 53.32248749 38.02535797 54.00376892 37.52326965 C57.71575752 35.63611228 60.87515689 35.58530907 64.93969727 35.62768555 C66.11621353 35.62220955 66.11621353 35.62220955 67.3164978 35.61662292 C69.90002327 35.60854008 72.48291711 35.62210721 75.06640625 35.63671875 C76.86571757 35.63723758 78.66502945 35.636719 80.46434021 35.63520813 C84.23111457 35.63529775 87.99767444 35.64570696 91.7644043 35.66381836 C96.59211745 35.68652144 101.41951777 35.68704555 106.24726963 35.68030071 C109.96102173 35.67695934 113.67470252 35.68359374 117.38844109 35.69342995 C119.16863571 35.69727809 120.94883826 35.69843176 122.72903633 35.6968441 C125.21607712 35.6964732 127.70271675 35.70909989 130.18969727 35.7253418 C130.92487076 35.72286438 131.66004425 35.72038696 132.41749573 35.71783447 C139.06186491 35.78707946 139.06186491 35.78707946 142 38 C144.86528597 41.66047089 144.20023962 46.14361314 144.08422852 50.55712891 C144.07006393 51.41947144 144.05589935 52.28181396 144.04130554 53.17028809 C144.01027731 55.04189525 143.97513673 56.91343774 143.93637276 58.78490067 C143.85846773 62.77279304 143.81606623 66.76081691 143.7713995 70.74919701 C143.68760138 78.17119706 143.58850496 85.59235183 143.4309082 93.01318359 C143.3225647 98.17901503 143.25891012 103.34377329 143.22398186 108.51060104 C143.20242748 110.47309545 143.16453515 112.43548477 143.10956001 114.39732742 C142.4659208 127.18883487 142.4659208 127.18883487 148.3737793 138.06542969 C149.8908334 139.40581451 151.43044072 140.72149764 153 142 C153.97936752 143.1280431 154.9275513 144.28466947 155.828125 145.4765625 C160.05660949 150.97359233 164.32500597 156.42120944 168.74194336 161.76831055 C186.69881281 183.55869915 203.04897533 207.4419163 217 232 C217.37995117 232.66128906 217.75990234 233.32257813 218.15136719 234.00390625 C241.68151721 275.05409568 268.61586496 329.78491355 255.69628906 378.46118164 C255.16007801 380.31615108 254.58145917 382.15871263 254 384 C253.71125 384.94875 253.4225 385.8975 253.125 386.875 C247.84352022 401.96494222 235.79082093 413.1806377 221.80371094 420.16308594 C195.25706223 432.48061595 163.9755354 426.81066784 137 419 C135.79005371 418.65291992 135.79005371 418.65291992 134.55566406 418.29882812 C93.74108247 406.31269155 55.3796216 383.58773843 21 359 C20.2790918 358.48872559 19.55818359 357.97745117 18.81542969 357.45068359 C8.65341685 350.23942139 -1.2960404 342.81626732 -11 335 C-11.64179199 334.484375 -12.28358398 333.96875 -12.94482422 333.4375 C-25.06804931 323.68499986 -37.04359223 313.80619538 -48.50390625 303.27734375 C-50.72374551 301.2520444 -52.97393516 299.27402229 -55.25 297.3125 C-57.76783462 295.12730613 -60.16118778 292.87568539 -62.5 290.5 C-69.52392696 283.27001752 -69.52392696 283.27001752 -78 278 C-80.0241377 279.99674336 -82.04429763 281.99727125 -84.0625 284 C-84.62388672 284.55300781 -85.18527344 285.10601563 -85.76367188 285.67578125 C-88.7602285 288.65521469 -91.63355141 291.68743197 -94.390625 294.890625 C-98.28048922 299.39199389 -102.45845176 303.56922009 -106.6875 307.75 C-107.43322266 308.49121094 -108.17894531 309.23242188 -108.94726562 309.99609375 C-110.32914783 311.36934689 -111.71206563 312.74155944 -113.09643555 314.11230469 C-115.04055822 315.94876996 -115.04055822 315.94876996 -116.56573486 318.08662415 C-120.1060798 320.86939846 -123.53599382 320.55131246 -127.85180664 320.50170898 C-128.74490036 320.50711197 -129.63799408 320.51251495 -130.55815125 320.51808167 C-133.50915703 320.53058552 -136.45919045 320.51406818 -139.41015625 320.49609375 C-141.45991568 320.49624869 -143.50967541 320.49773676 -145.55943298 320.50050354 C-149.8542883 320.50188823 -154.14880994 320.48931649 -158.44360352 320.46655273 C-163.95421428 320.43815015 -169.46427127 320.44090941 -174.97492313 320.45364285 C-179.20678963 320.46059044 -183.43852764 320.45282155 -187.67037773 320.44038582 C-189.70259547 320.43586364 -191.73482696 320.43554119 -193.76704597 320.43945122 C-196.60418206 320.44235486 -199.44054889 320.42589769 -202.27758789 320.40405273 C-203.5423848 320.41080521 -203.5423848 320.41080521 -204.83273315 320.41769409 C-210.55044311 320.34437913 -210.55044311 320.34437913 -212.69399166 318.7023325 C-214.49968867 316.34867471 -214.75406646 314.16043467 -214.63720703 311.23828125 C-213.26046486 306.40227657 -209.03975648 303.29060374 -205.4375 300 C-203.82971859 298.48161175 -202.22422264 296.96079961 -200.62109375 295.4375 C-199.9036499 294.77621094 -199.18620605 294.11492187 -198.44702148 293.43359375 C-196.54050076 291.53753483 -194.82453805 289.64785929 -193.08789062 287.60546875 C-187.39625534 281.03547209 -181.12795938 275.00533344 -174.97265625 268.875 C-173.61480652 267.51901842 -172.25717967 266.1628136 -170.89976501 264.80639648 C-167.34941401 261.2598394 -163.79606883 257.71629739 -160.24206543 254.17340088 C-156.60680922 250.5484264 -152.97442901 246.92057251 -149.34179688 243.29296875 C-142.23065698 236.19251099 -135.1163467 229.09523903 -128 222 C-128.95232149 220.72232174 -129.9057407 219.44546162 -130.85961914 218.16894531 C-131.39043594 217.45780579 -131.92125275 216.74666626 -132.46815491 216.01397705 C-134.37020074 213.51328251 -136.38850895 211.13135858 -138.4375 208.75 C-150.16071569 194.8776044 -160.69884292 179.94575939 -171 165 C-171.42587402 164.38382813 -171.85174805 163.76765625 -172.29052734 163.1328125 C-179.68448323 152.38635342 -186.42794157 141.26447244 -193 130 C-193.433125 129.25911133 -193.86625 128.51822266 -194.3125 127.75488281 C-218.08091514 86.81007392 -243.56207811 31.92323198 -231.97265625 -16.64453125 C-229.08583545 -26.60348334 -225.42978672 -34.82971173 -219 -43 C-218.37351562 -43.8353125 -217.74703125 -44.670625 -217.1015625 -45.53125 C-205.98328134 -58.59213047 -187.62768541 -64.00430007 -171.125 -65.8125 C-109.38807208 -69.13168967 -48.94064022 -33.87534061 0 0 Z M-176.8125 -21.375 C-186.87929317 -10.44533884 -189.72076158 2.06386606 -189.4375 16.6875 C-189.42283691 17.91210938 -189.40817383 19.13671875 -189.39306641 20.3984375 C-188.18089773 79.01489985 -150.99155591 133.61480856 -116 178 C-115.12239014 179.12583496 -115.12239014 179.12583496 -114.22705078 180.27441406 C-112.45371313 182.54577317 -110.666889 184.80575899 -108.875 187.0625 C-108.33012939 187.76044678 -107.78525879 188.45839355 -107.22387695 189.17749023 C-105.88469932 190.8427285 -104.44960396 192.4299479 -103 194 C-100.01624444 194.30993912 -100.01624444 194.30993912 -98.22922897 192.60116577 C-97.57002079 191.94049103 -96.91081261 191.27981628 -96.23162842 190.59912109 C-95.47193253 189.84499435 -94.71223663 189.09086761 -93.92951965 188.31388855 C-93.10038559 187.4755397 -92.27125153 186.63719086 -91.41699219 185.7734375 C-90.54022324 184.89871292 -89.66345428 184.02398834 -88.76011658 183.12275696 C-86.35143177 180.71657074 -83.94965211 178.30386281 -81.55079174 175.88790512 C-79.03537618 173.35745581 -76.51185936 170.83511058 -73.98931885 168.31176758 C-69.74744566 164.06619745 -65.51125376 159.81502669 -61.27880859 155.56005859 C-55.86438585 150.11687988 -50.44084639 144.68288323 -45.01426315 139.25183105 C-40.33493865 134.56850621 -35.65987462 129.88093483 -30.98547459 125.19269562 C-29.49113734 123.69428079 -27.99622992 122.19643663 -26.50124359 120.69866943 C-23.69789741 117.88945958 -20.89899418 115.07584794 -18.10058594 112.26171875 C-16.86903023 111.02848625 -16.86903023 111.02848625 -15.6125946 109.77033997 C-11.42414357 105.55086763 -7.40185462 101.25025901 -3.52145576 96.74604797 C-1.57967641 94.51762965 0.46540454 92.41454999 2.55834961 90.328125 C3.37867172 89.50787842 4.19899384 88.68763184 5.04417419 87.8425293 C6.33521812 86.55922729 6.33521812 86.55922729 7.65234375 85.25 C8.55247696 84.35128174 9.45261017 83.45256348 10.38002014 82.52661133 C12.74711263 80.16413425 15.11634639 77.80384888 17.48669434 75.44464111 C19.91550742 73.02614819 22.34141103 70.60474054 24.76757812 68.18359375 C29.50907369 63.45307046 34.25341898 58.72542027 39 54 C37.15040795 49.88756883 34.47733041 47.72832827 30.9375 45.0625 C30.3182666 44.58723877 29.6990332 44.11197754 29.06103516 43.62231445 C27.72944847 42.60151963 26.3953768 41.58395975 25.05908203 40.56933594 C23.02718257 39.02071728 21.01012707 37.45457333 18.99609375 35.8828125 C-21.47370064 4.41276413 -126.03277736 -70.85267847 -176.8125 -21.375 Z M-207 -37 C-222.17518193 -18.01430983 -222.06192573 5.29827431 -219.48828125 28.5703125 C-209.73245795 95.08072 -163.08254114 159.31498726 -120.5078125 209.0625 C-119.26644531 210.5165625 -119.26644531 210.5165625 -118 212 C-117.52788086 212.47050781 -117.05576172 212.94101562 -116.56933594 213.42578125 C-113.90848304 216.20069742 -113.01406009 217.90321817 -112.45762634 221.73339844 C-112.63379616 227.16366852 -115.73888943 229.80341499 -119.49829102 233.390625 C-120.18930405 234.08119995 -120.88031708 234.7717749 -121.5922699 235.48327637 C-123.87785122 237.7582009 -126.19033673 240.00357495 -128.50390625 242.25 C-130.1032091 243.83182646 -131.70067204 245.41551514 -133.29637146 247.00097656 C-137.50316454 251.17157415 -141.73294823 255.31805387 -145.96844482 259.45947266 C-151.09190473 264.47721095 -156.18906094 269.52163408 -161.28908443 274.56317139 C-165.26207151 278.48987604 -169.23906675 282.41219082 -173.22938538 286.32128906 C-173.96707153 287.04578247 -174.70475769 287.77027588 -175.46479797 288.51672363 C-176.82756526 289.85487335 -178.19238544 291.19093767 -179.55984497 292.52429199 C-183.92225545 296.81449711 -188.17295421 301.21878086 -192 306 C-192 306.33 -192 306.66 -192 307 C-183.66341537 307.54012365 -175.33444099 307.94488686 -166.98453426 308.19167995 C-163.10348766 308.31034402 -159.23461725 308.47003514 -155.3605957 308.73510742 C-135.39719545 310.32409132 -135.39719545 310.32409132 -117.93017578 302.05908203 C-111.93492551 296.63062244 -106.949593 290.3745947 -102 284 C-97.32995222 278.49705884 -92.49132443 273.15008933 -87.5 267.9375 C-86.87480469 267.24978516 -86.24960937 266.56207031 -85.60546875 265.85351562 C-82.52965242 262.67262483 -80.99364409 261.10745092 -76.49609375 260.62109375 C-71.71295339 262.50762844 -69.003292 265.38699232 -65.5625 269.125 C-64.2321676 270.5133486 -62.90015877 271.90009295 -61.56640625 273.28515625 C-60.97802979 273.91043213 -60.38965332 274.53570801 -59.78344727 275.17993164 C-57.38301426 277.62965486 -54.82776546 279.8645801 -52.20703125 282.07421875 C-48.94885117 284.91719712 -45.83195921 287.90739233 -42.6875 290.875 C-37.43749504 295.81415794 -32.09782608 300.50023144 -26.46484375 305 C-24.13370509 306.89151029 -21.90725066 308.85482325 -19.6875 310.875 C-13.71324957 316.23596455 -7.34823776 321.09605356 -1 326 C-0.33403809 326.51755859 0.33192383 327.03511719 1.01806641 327.56835938 C31.40119657 351.17332731 63.60625305 371.7224483 98 389 C98.8259668 389.41765625 99.65193359 389.8353125 100.50292969 390.265625 C130.90523347 405.53494349 173.553443 421.70636231 208 411 C222.45632385 406.12057719 232.10774337 398.23821132 239.1796875 384.75 C243.79413677 375.0495519 244.35693322 365.71189346 244.3125 355.0625 C244.31121094 353.78737549 244.30992187 352.51225098 244.30859375 351.19848633 C244.2076336 341.2154206 243.18816818 331.72953351 241 322 C240.67 322 240.34 322 240 322 C239.93268677 323.04957886 239.93268677 323.04957886 239.86401367 324.12036133 C239.65010113 327.35195918 239.41889296 330.58210857 239.1875 333.8125 C239.08211914 335.46282227 239.08211914 335.46282227 238.97460938 337.14648438 C237.73591287 353.94320894 232.51779919 368.31266969 220 380 C213.59159929 385.40255141 207.03321896 388.70175458 199 391 C197.97519531 391.2990625 196.95039062 391.598125 195.89453125 391.90625 C151.58792876 403.12574137 101.22031067 379.03508414 64 357 C50.36239688 348.79931507 36.9335281 340.27587742 24 331 C23.25443848 330.46552246 22.50887695 329.93104492 21.74072266 329.38037109 C11.12283339 321.73261228 0.81366088 313.77887895 -9.26318359 305.43261719 C-11.76234405 303.37117868 -14.29045371 301.34583293 -16.8125 299.3125 C-21.41773356 295.54395302 -25.82873534 291.59211696 -30.19921875 287.5546875 C-32.37123576 285.57351717 -34.56282402 283.63121547 -36.78125 281.703125 C-41.20410479 277.84388049 -45.52252148 273.88099936 -49.8125 269.875 C-50.56208984 269.18535156 -51.31167969 268.49570312 -52.08398438 267.78515625 C-60.6802717 259.74966336 -60.6802717 259.74966336 -61.3125 254.3125 C-61 252 -61 252 -59 250 C-57.04716682 249.74552441 -57.04716682 249.74552441 -54.61038208 249.73930359 C-53.68785645 249.73221878 -52.76533081 249.72513397 -51.81484985 249.71783447 C-50.79974335 249.72031189 -49.78463684 249.72278931 -48.73876953 249.7253418 C-47.67200989 249.72023087 -46.60525024 249.71511993 -45.50616455 249.70985413 C-41.96499079 249.69590637 -38.42401054 249.69691894 -34.8828125 249.69921875 C-32.42902554 249.69533438 -29.97523926 249.69100025 -27.52145386 249.68623352 C-22.37153954 249.67875993 -17.22169377 249.67907062 -12.07177734 249.68432617 C-5.46492871 249.69011916 1.14163945 249.67319917 7.7484417 249.6499815 C12.81842699 249.63526427 17.88834445 249.63436978 22.95834732 249.63749123 C25.39445679 249.6369769 27.83056995 249.63171841 30.26665878 249.62167931 C33.6712857 249.60937282 37.07536266 249.61607242 40.47998047 249.62768555 C41.49103851 249.62004181 42.50209656 249.61239807 43.54379272 249.60452271 C44.47195801 249.61153702 45.40012329 249.61855133 46.35641479 249.6257782 C47.16130781 249.62561046 47.96620083 249.62544271 48.79548454 249.62526989 C51.57038526 250.09695579 52.9585211 251.09058722 55 253 C55.48101807 255.41081238 55.48101807 255.41081238 55.45410156 258.29760742 C55.45361816 259.39359253 55.45313477 260.48957764 55.45263672 261.61877441 C55.43217285 262.76938354 55.41170898 263.91999268 55.390625 265.10546875 C55.38659668 266.16399048 55.38256836 267.22251221 55.37841797 268.31311035 C55.3574723 272.27141628 55.30162691 276.22947534 55.25 280.1875 C55.1675 289.035625 55.085 297.88375 55 307 C79.42 307 103.84 307 129 307 C129.13207773 282.35064155 129.26277789 257.70127695 129.39115143 233.05189896 C129.45083791 221.59921052 129.51108395 210.1465256 129.57275391 198.69384766 C129.64400706 185.44694906 129.71376525 172.20004336 129.78125 158.953125 C129.78672726 157.87796694 129.79220451 156.80280888 129.79784775 155.69507027 C129.97631074 120.46307069 130.07195379 85.23244787 130 50 C121.13333607 49.62658879 112.26943758 49.34370302 103.3965826 49.17100525 C99.27447287 49.08803976 95.15779808 48.97592006 91.03881836 48.79296875 C72.28948934 47.14010358 72.28948934 47.14010358 55.19775391 52.84179688 C51.90861861 56.02342375 49.41004221 59.68942932 46.86428833 63.47460938 C43.58286539 67.91967004 39.57250492 71.65130903 35.61376762 75.48852539 C33.67069831 77.3785452 31.75249336 79.29282811 29.83402348 81.20776367 C28.37621325 82.66283686 26.91562344 84.1150618 25.45410156 85.56640625 C24.96808472 86.04907959 24.48206787 86.53175293 23.98132324 87.02905273 C23.24806824 87.75717163 23.24806824 87.75717163 22.5 88.5 C19.53252342 91.44690775 16.56576779 94.3945217 13.60290527 97.34606934 C11.77659423 99.16495346 9.94804357 100.98159275 8.11682129 102.79553223 C7.28485229 103.624198 6.4528833 104.45286377 5.59570312 105.30664062 C4.87483521 106.02227173 4.15396729 106.73790283 3.41125488 107.47521973 C1.4661774 109.51187428 -0.37973574 111.57768918 -2.21766663 113.70874023 C-6.33220157 118.44172954 -10.70382667 122.89620471 -15.11303711 127.35351562 C-15.99853745 128.25201233 -16.88403778 129.15050903 -17.79637146 130.07623291 C-25.89155599 138.28632867 -34.01574839 146.46797916 -42.14635372 154.64298248 C-48.14566684 160.67562851 -54.13135056 166.72115835 -60.10000414 172.78414392 C-64.31303393 177.06148242 -68.54126064 181.32342016 -72.78095251 185.57433081 C-75.30759061 188.10852013 -77.82699463 190.64903481 -80.33009148 193.20649719 C-83.11738552 196.05363224 -85.93577606 198.86867228 -88.75756836 201.68164062 C-89.57807678 202.52934021 -90.39858521 203.37703979 -91.24395752 204.25042725 C-97.58946701 210.49405862 -97.58946701 210.49405862 -102.4299469 210.62585449 C-106.58862463 209.89681011 -107.70405633 209.12640674 -110.3125 205.875 C-111.06917969 204.95203125 -111.82585937 204.0290625 -112.60546875 203.078125 C-113.39566406 202.06234375 -114.18585938 201.0465625 -115 200 C-116.23169922 198.47632813 -116.23169922 198.47632813 -117.48828125 196.921875 C-119.84788807 193.98857379 -122.15243439 191.01584645 -124.44287109 188.02832031 C-125.50145666 186.6494039 -126.56445282 185.27386465 -127.63134766 183.90136719 C-143.50794034 163.45278988 -158.42853803 141.80926805 -170.86035156 119.07666016 C-171.9879596 117.02193995 -173.14430019 114.98556539 -174.3046875 112.94921875 C-192.80271778 79.91333345 -209.85578617 33.62618301 -200.4375 -4.6875 C-196.09777523 -19.24366016 -187.74811545 -32.37721398 -174.21484375 -40.015625 C-160.71591512 -46.01514884 -146.53906564 -47.30679486 -132 -48 C-135.87317703 -50.45817635 -140.10636856 -50.68913759 -144.5625 -51.125 C-145.39950439 -51.2070166 -146.23650879 -51.2890332 -147.09887695 -51.37353516 C-168.27545595 -53.28554332 -190.84271974 -53.15728026 -207 -37 Z M143 158 C142.99668985 158.79421954 142.99337971 159.58843908 142.98996925 160.40672588 C142.9087654 179.72768407 142.81668151 199.04856232 142.71247292 218.36941051 C142.66234117 227.71280974 142.61589829 237.05620017 142.578125 246.3996582 C142.54519426 254.54296976 142.50535702 262.68621314 142.45720994 270.82944947 C142.43195574 275.14162389 142.41017124 279.45375316 142.39665604 283.76598167 C142.38382592 287.82481384 142.36176123 291.88349106 142.33261681 295.94223785 C142.32354847 297.43173612 142.31785253 298.92125933 142.31578636 300.41078377 C142.31245875 302.44533381 142.29579609 304.47984899 142.2784729 306.514328 C142.27294214 307.65274234 142.26741138 308.79115667 142.26171303 309.96406841 C141.99522183 313.05542785 141.41363867 315.24680676 140 318 C136.69491015 319.65254492 133.00906848 319.15634465 129.37524414 319.16113281 C128.48244247 319.16609772 127.58964081 319.17106262 126.66978455 319.17617798 C123.70823403 319.19081633 120.74673704 319.19760383 117.78515625 319.203125 C115.73253884 319.20887438 113.67992145 319.21463214 111.62730408 319.22039795 C107.32062529 319.23091223 103.01396521 319.23675233 98.70727539 319.24023438 C93.18097638 319.24572478 87.65492306 319.26976273 82.12870121 319.29820633 C77.88829316 319.31680117 73.6479447 319.32203659 69.40749931 319.32357025 C67.3696807 319.32660366 65.33186331 319.33465521 63.29408455 319.34775543 C60.44724777 319.36475262 57.60101689 319.36295141 54.75415039 319.35644531 C53.90781036 319.3656601 53.06147034 319.37487488 52.18948364 319.3843689 C46.41142338 319.34286572 46.41142338 319.34286572 44.32250118 317.60203171 C41.90900054 314.67840139 41.87749769 312.71595627 41.88647461 308.99951172 C41.88659546 307.94401123 41.88671631 306.88851074 41.88684082 305.80102539 C41.89195679 304.68848389 41.89707275 303.57594238 41.90234375 302.4296875 C41.90335083 301.4094751 41.90435791 300.3892627 41.90539551 299.33813477 C41.91063837 295.51707845 41.92459957 291.69603813 41.9375 287.875 C41.958125 279.33625 41.97875 270.7975 42 262 C15.27 262 -11.46 262 -39 262 C-37.35 263.65 -35.7 265.3 -34 267 C-33.03126953 267.98613281 -33.03126953 267.98613281 -32.04296875 268.9921875 C-27.53985435 273.56166358 -22.87365225 277.83174479 -18 282 C-16.95787415 282.90572194 -15.91624715 283.81201803 -14.875 284.71875 C-6.78023549 291.7451992 1.49237855 298.48087696 10 305 C10.73460449 305.56589844 11.46920898 306.13179687 12.22607422 306.71484375 C53.34133142 338.30929878 102.74081436 371.4894193 155 380 C156.01449219 380.18175781 157.02898437 380.36351562 158.07421875 380.55078125 C163.63646349 381.18725702 169.15562071 381.22451308 174.75 381.25 C175.86632812 381.270625 176.98265625 381.29125 178.1328125 381.3125 C191.36690194 381.37419739 203.85570511 378.08724093 213.75 368.9375 C224.33405063 357.69780022 226.37841731 344.87765377 226.3125 330.0625 C226.30758545 328.76795898 226.3026709 327.47341797 226.29760742 326.13964844 C226.10418306 310.2887696 222.95027239 296.00506478 218 281 C217.59265625 279.76378906 217.1853125 278.52757812 216.765625 277.25390625 C203.2251338 238.98210613 180.07736671 204.4985852 155.28955078 172.66601562 C153.9103406 170.8841659 152.5457117 169.09181985 151.18359375 167.296875 C150.72404297 166.69302979 150.26449219 166.08918457 149.79101562 165.46704102 C148.90334379 164.29997031 148.01784786 163.13124071 147.13476562 161.96069336 C146.11331539 160.62221985 145.05987865 159.30825425 144 158 C143.67 158 143.34 158 143 158 Z " fill="#9ED0E6" transform="translate(488,319)"/>
<path d="M0 0 C3.39529659 0.71823582 4.21790952 1.02454035 6.25 3.6875 C6.62231445 5.68823242 6.62231445 5.68823242 6.61328125 8.04296875 C6.61448975 9.41279907 6.61448975 9.41279907 6.61572266 10.81030273 C6.58937744 12.32732788 6.58937744 12.32732788 6.5625 13.875 C6.54775635 15.47226929 6.54775635 15.47226929 6.53271484 17.10180664 C6.37113177 27.94976923 5.88270459 38.78865312 5.375 49.625 C5.33597565 50.49498627 5.29695129 51.36497253 5.25674438 52.26132202 C4.22966467 74.64363953 4.22966467 74.64363953 2.25 78.6875 C-1.60886718 81.53041169 -4.38195141 82.06551061 -9.12915039 82.07568359 C-10.39719009 82.08514008 -11.6652298 82.09459656 -12.97169495 82.1043396 C-14.34701858 82.09897014 -15.72233934 82.09281726 -17.09765625 82.0859375 C-18.51582489 82.08795984 -19.93399251 82.09087261 -21.35215759 82.09463501 C-24.31861308 82.09904944 -27.28479688 82.09265508 -30.2512207 82.07861328 C-34.04998123 82.06150588 -37.84810657 82.07137738 -41.64684391 82.08933067 C-44.5731229 82.10017922 -47.49925165 82.09671761 -50.4255352 82.0889473 C-51.82614658 82.08694904 -53.22677168 82.08939141 -54.62736702 82.09638596 C-56.58499001 82.10401886 -58.54266098 82.09031877 -60.50024414 82.07568359 C-61.6132338 82.07329681 -62.72622345 82.07091003 -63.87294006 82.06845093 C-67.10697461 81.64023306 -68.48267106 81.00935718 -70.75 78.6875 C-71.53217496 75.24443317 -71.7595239 73.94375752 -70.75 70.6875 C-68.12324929 67.0988513 -64.95564304 64.1883152 -61.6875 61.1875 C-59.98602031 59.57529947 -58.28676938 57.96074323 -56.58984375 56.34375 C-55.76274902 55.56193359 -54.9356543 54.78011719 -54.08349609 53.97460938 C-51.34464756 51.29020542 -48.85142288 48.45770192 -46.36547852 45.54101562 C-43.80775261 42.60641458 -41.03280422 39.90653425 -38.25 37.1875 C-34.81962004 33.7997034 -31.42715525 30.43527911 -28.3125 26.75 C-24.44310892 22.18237293 -20.14807691 18.040832 -15.87890625 13.85131836 C-12.6290464 10.64373807 -9.63611365 7.41084665 -6.8125 3.8125 C-4.3626534 0.91609908 -4.00156251 0.73361979 0 0 Z M-12.74780273 29.54663086 C-13.28477783 30.08811768 -13.82175293 30.62960449 -14.375 31.1875 C-14.92551025 31.73994385 -15.47602051 32.2923877 -16.04321289 32.86157227 C-18.85749529 35.70572763 -21.59582055 38.57403558 -24.1875 41.625 C-27.35012479 45.34710632 -30.77989507 48.75593011 -34.25 52.1875 C-41.32387631 59.14211567 -41.32387631 59.14211567 -47.75 66.6875 C-47.75 67.0175 -47.75 67.3475 -47.75 67.6875 C-35.21 67.6875 -22.67 67.6875 -9.75 67.6875 C-9.42 62.428125 -9.09 57.16875 -8.75 51.75 C-8.64558594 50.109104 -8.54117188 48.46820801 -8.43359375 46.77758789 C-7.99501734 39.7413722 -7.62160817 32.74102608 -7.75 25.6875 C-9.92726507 25.6875 -11.28913512 28.09358161 -12.74780273 29.54663086 Z " fill="#9FD0E6" transform="translate(541.75,441.3125)"/>
</svg>
