<?xml version="1.0" standalone="no"?>
<!DOCTYPE svg PUBLIC "-//W3C//DTD SVG 20010904//EN"
 "http://www.w3.org/TR/2001/REC-SVG-20010904/DTD/svg10.dtd">
<svg version="1.0" xmlns="http://www.w3.org/2000/svg"
 width="896.000000pt" height="896.000000pt" viewBox="0 0 896.000000 896.000000"
 preserveAspectRatio="xMidYMid meet">

<g transform="translate(0.000000,896.000000) scale(0.100000,-0.100000)"
fill="#000000" stroke="none">
<path d="M4065 8934 c-323 -29 -666 -101 -990 -209 -1350 -446 -2398 -1498
-2846 -2855 -271 -823 -292 -1738 -59 -2583 328 -1190 1149 -2202 2250 -2775
505 -263 1009 -412 1635 -484 167 -19 714 -16 894 5 614 73 1159 242 1663 517
1447 790 2338 2288 2338 3930 0 984 -310 1909 -906 2700 -753 1001 -1915 1645
-3164 1755 -213 18 -606 18 -815 -1z m692 -2349 c210 -66 379 -233 441 -435
71 -233 9 -472 -167 -648 -115 -115 -296 -192 -453 -192 l-68 0 0 184 0 184
73 4 c213 11 354 193 288 370 -44 114 -154 189 -288 196 l-73 4 0 177 c0 98 3
181 7 185 13 13 166 -6 240 -29z m-468 -952 l-4 -917 40 -9 c22 -6 103 -10
180 -11 108 0 154 4 200 18 140 42 236 119 297 239 32 65 68 192 68 242 0 26
8 38 38 60 93 70 181 170 227 262 l24 47 20 -47 c38 -87 54 -193 54 -352 0
-168 -12 -231 -68 -351 -47 -103 -102 -179 -187 -259 -208 -197 -540 -288
-983 -271 -93 3 -198 9 -232 12 l-63 7 0 791 c0 435 5 832 10 881 20 184 74
313 178 426 58 63 171 149 195 149 7 0 9 -283 6 -917z m-579 -143 l0 -190 -95
0 -95 0 0 183 c0 101 3 187 7 190 3 4 46 7 95 7 l88 0 0 -190z m-1356 -1582
c37 -80 41 -90 211 -458 65 -140 124 -270 131 -287 l14 -33 -68 0 -68 0 -32
65 -32 65 -195 0 -195 0 -29 -65 -30 -65 -65 0 c-36 0 -66 4 -66 9 0 8 38 91
219 486 16 33 58 126 96 208 37 81 69 147 72 147 2 0 19 -33 37 -72z m3249 48
c71 -29 146 -119 116 -137 -8 -4 -29 -18 -48 -31 l-33 -24 -37 37 c-40 41 -89
55 -146 45 -45 -9 -92 -49 -100 -87 -11 -49 16 -76 123 -126 54 -24 112 -51
129 -60 49 -23 124 -93 139 -130 17 -39 18 -130 3 -170 -5 -15 -29 -47 -52
-71 -127 -129 -413 -104 -499 45 l-17 30 45 31 c24 18 48 32 53 32 4 0 18 -12
32 -26 40 -43 92 -64 159 -64 103 0 160 38 160 106 0 55 -39 88 -196 164 -120
59 -149 77 -174 111 -92 128 -9 303 161 339 53 11 139 4 182 -14z m1094 -7
c63 -21 163 -83 163 -100 0 -9 -33 -59 -61 -93 -4 -4 -28 6 -53 23 -64 44
-121 62 -194 62 -211 -1 -353 -232 -259 -423 34 -69 101 -131 164 -152 101
-35 237 -13 301 47 33 30 62 90 62 126 l0 30 -127 -2 -126 -2 -1 58 -1 57 197
0 198 0 0 -62 c0 -165 -79 -295 -220 -362 -87 -41 -217 -49 -310 -18 -155 53
-262 176 -291 336 -41 220 108 441 331 493 67 15 150 9 227 -18z m746 -339
l176 -185 1 268 0 267 65 0 65 0 0 -422 0 -423 -73 75 c-40 41 -161 167 -270
280 l-197 205 0 -273 0 -272 -65 0 -65 0 0 428 0 427 93 -95 c51 -52 172 -178
270 -280z m-6106 185 c1 -88 2 -166 2 -172 1 -10 44 -13 181 -13 l180 0 0 175
0 175 65 0 65 0 0 -415 0 -415 -65 0 -65 0 0 175 0 175 -182 -2 -183 -3 -2
-145 c-2 -80 -3 -157 -3 -172 0 -27 -1 -28 -60 -28 l-60 0 -2 415 -3 416 65
-3 65 -3 2 -160z m1603 -250 l0 -415 -65 0 -65 0 0 415 0 415 65 0 65 0 0
-415z m502 405 c62 -18 128 -71 162 -130 27 -47 31 -65 31 -125 -1 -52 -6 -81
-22 -111 -24 -45 -95 -114 -118 -114 -20 0 -19 -12 4 -41 24 -32 195 -270 205
-286 5 -10 -11 -13 -71 -13 l-78 1 -110 159 -110 160 -52 0 -53 0 0 -160 0
-160 -65 0 -65 0 0 415 0 415 153 0 c83 0 169 -5 189 -10z m793 -20 c83 -33
173 -123 206 -205 20 -52 24 -77 24 -180 0 -143 -20 -205 -90 -282 -90 -101
-189 -133 -412 -133 l-153 0 0 416 0 416 183 -4 c163 -4 188 -7 242 -28z m855
-35 l0 -65 -184 0 -184 0 0 -105 0 -105 159 0 159 0 0 -65 0 -65 -159 0 -159
0 -1 -115 -1 -115 185 0 185 0 0 -65 0 -65 -249 0 -249 0 -1 415 -2 415 251 0
250 0 0 -65z m920 -350 l0 -415 -65 0 -65 0 0 415 0 415 65 0 65 0 0 -415z
m-3925 -970 c27 -47 51 -85 55 -85 3 0 28 38 54 85 34 60 53 85 67 85 18 0 19
-9 19 -155 0 -147 -1 -155 -20 -155 -18 0 -20 8 -22 111 l-3 112 -45 -77 c-25
-42 -47 -76 -50 -76 -3 0 -26 34 -50 76 l-45 75 -3 -110 c-2 -103 -4 -111 -22
-111 -19 0 -20 8 -20 155 0 145 1 155 19 155 13 0 33 -25 66 -85z m604 -7 c18
-51 44 -121 57 -155 22 -60 22 -63 4 -63 -13 0 -24 15 -38 53 -19 51 -20 52
-65 55 l-45 3 -18 -52 c-17 -47 -37 -69 -50 -56 -5 5 88 275 102 298 12 20 21
5 53 -83z m453 75 c20 -18 24 -43 6 -43 -6 0 -20 8 -30 17 -23 20 -51 8 -56
-25 -2 -15 9 -27 48 -48 83 -45 104 -112 51 -165 -22 -21 -39 -29 -66 -29 -27
0 -44 8 -66 29 -16 16 -29 37 -29 45 0 24 28 19 41 -6 15 -28 28 -38 53 -38
31 0 56 30 56 66 0 30 -6 37 -55 65 -61 34 -80 59 -71 94 13 53 79 74 118 38z
m448 -1 c0 -13 -9 -18 -32 -20 -18 -2 -33 -4 -35 -5 -1 -2 -3 -62 -4 -135 -1
-122 -2 -132 -20 -132 -18 0 -19 9 -19 135 l0 135 -35 0 c-28 0 -35 4 -35 20
0 19 7 20 90 20 80 0 90 -2 90 -18z m400 -2 c0 -18 -7 -20 -65 -20 l-65 0 0
-50 0 -50 65 0 c50 0 65 -3 65 -15 0 -10 -16 -15 -62 -17 l-63 -3 0 -50 0 -50
45 -2 c25 -1 53 -2 63 -2 9 -1 17 -8 17 -16 0 -12 -16 -15 -80 -15 l-80 0 0
155 0 155 80 0 c73 0 80 -2 80 -20z m379 6 c58 -31 69 -116 20 -165 l-30 -31
30 -44 c36 -52 37 -56 12 -56 -12 0 -30 18 -50 50 -20 33 -38 50 -51 50 -17 0
-20 -7 -20 -50 0 -43 -3 -50 -20 -50 -19 0 -20 7 -20 155 l0 155 50 0 c28 0
63 -6 79 -14z m696 -26 c69 -67 71 -153 5 -224 -38 -40 -40 -41 -109 -41 -64
0 -72 3 -102 30 -35 33 -59 81 -59 119 0 46 31 106 69 132 31 22 45 25 98 22
55 -4 67 -8 98 -38z m455 20 c0 -18 -7 -20 -54 -20 l-54 0 -4 -46 c-2 -25 -1
-47 1 -50 2 -2 28 -4 58 -4 40 0 53 -4 53 -15 0 -12 -13 -15 -55 -15 l-55 0 0
-70 c0 -63 -2 -70 -20 -70 -19 0 -20 7 -20 155 l0 155 75 0 c68 0 75 -2 75
-20z m518 -37 c11 -32 36 -102 55 -155 33 -88 34 -98 18 -98 -13 0 -24 16 -38
53 -20 51 -21 52 -66 55 l-45 3 -17 -51 c-15 -47 -37 -71 -51 -57 -3 3 15 61
40 128 64 177 65 179 75 179 5 0 18 -26 29 -57z m474 28 c29 -26 33 -35 32
-76 -1 -36 -7 -52 -29 -75 l-28 -30 31 -50 c31 -49 31 -50 9 -50 -17 0 -31 13
-52 50 -22 37 -35 50 -52 50 -21 0 -23 -5 -23 -50 0 -38 -4 -50 -15 -50 -13 0
-15 24 -15 155 l0 155 55 0 c46 0 60 -4 87 -29z m448 9 c0 -17 -7 -20 -40 -20
l-40 0 0 -135 c0 -113 -2 -135 -15 -135 -13 0 -15 22 -15 135 l0 135 -40 0
c-33 0 -40 3 -40 20 0 19 7 20 95 20 88 0 95 -1 95 -20z"/>
<path d="M2243 3533 l-70 -158 140 -3 c77 -1 142 -1 144 1 4 5 -125 296 -137
310 -4 4 -38 -63 -77 -150z"/>
<path d="M3230 3695 l0 -135 83 0 c96 0 141 18 171 69 23 40 24 102 2 136 -33
50 -73 65 -168 65 l-88 0 0 -135z"/>
<path d="M3940 3545 l0 -285 83 0 c110 0 177 21 233 72 114 105 113 325 -2
427 -60 53 -118 71 -226 71 l-88 0 0 -285z"/>
<path d="M2631 2539 c-14 -41 -15 -39 15 -39 24 0 25 3 19 28 -10 42 -22 46
-34 11z"/>
<path d="M4280 2555 l0 -65 34 0 c25 0 40 7 55 26 12 15 21 32 21 39 0 7 -9
24 -21 39 -15 19 -30 26 -55 26 l-34 0 0 -65z"/>
<path d="M4904 2611 c-44 -27 -64 -59 -64 -104 0 -69 55 -127 120 -127 36 0
85 28 103 59 39 66 11 148 -59 177 -44 19 -63 18 -100 -5z"/>
<path d="M5991 2539 c-6 -17 -11 -34 -11 -35 0 -2 13 -4 30 -4 28 0 29 1 18
28 -19 44 -25 45 -37 11z"/>
<path d="M6400 2555 l0 -65 39 0 c30 0 44 6 55 22 36 51 4 108 -59 108 l-35 0
0 -65z"/>
</g>
</svg>
